<?xml version="1.0" standalone="no"?><!DOCTYPE svg PUBLIC "-//W3C//DTD SVG 1.1//EN" "http://www.w3.org/Graphics/SVG/1.1/DTD/svg11.dtd"><svg t="1757681964835" class="icon" viewBox="0 0 1024 1024" version="1.1" xmlns="http://www.w3.org/2000/svg" p-id="36753" xmlns:xlink="http://www.w3.org/1999/xlink" width="200" height="200"><path d="M512 10.24c277.11488 0 501.76 224.64512 501.76 501.76s-224.64512 501.76-501.76 501.76-501.76-224.64512-501.76-501.76S234.88512 10.24 512 10.24z m0 30.72C251.8528 40.96 40.96 251.8528 40.96 512s210.8928 471.04 471.04 471.04 471.04-210.8928 471.04-471.04-210.8928-471.04-471.04-471.04z" fill="#000000" p-id="36754"></path><path d="M900.1472 548.43392l-139.90912 106.60864a26.59328 26.59328 0 0 1-27.904 2.68288 26.51136 26.51136 0 0 1-14.76608-23.7824V420.75648a26.51136 26.51136 0 0 1 14.78144-23.76704 26.59328 26.59328 0 0 1 27.88864 2.688l139.91424 106.60864a26.50112 26.50112 0 0 1 0 42.14784z" fill="#5459F6" p-id="36755"></path><path d="M925.952 527.36a41.86112 41.86112 0 0 0-16.4864-33.29024l-139.91936-106.60864a41.95328 41.95328 0 0 0-44.00128-4.24448 41.87136 41.87136 0 0 0-23.33696 37.53984v213.18656a41.86624 41.86624 0 0 0 23.3216 37.55008 41.95328 41.95328 0 0 0 44.01664-4.23424l139.91424-106.60864A41.86112 41.86112 0 0 0 925.952 527.36z m-30.72 0c0 3.47136-1.62304 6.74816-4.39296 8.8576l-139.90912 106.60864a11.23328 11.23328 0 0 1-11.78112 1.1264 11.15136 11.15136 0 0 1-6.2208-9.99936V420.7616c0-4.23936 2.4064-8.11008 6.2208-9.99424a11.23328 11.23328 0 0 1 11.776 1.13152l139.91936 106.60864c2.7648 2.10944 4.38784 5.38624 4.38784 8.8576z" fill="#000000" p-id="36756"></path><path d="M332.8 286.72m-61.44 0a61.44 61.44 0 1 0 122.88 0 61.44 61.44 0 1 0-122.88 0Z" fill="#000000" p-id="36757"></path><path d="M499.2 135.68m-48.64 0a48.64 48.64 0 1 0 97.28 0 48.64 48.64 0 1 0-97.28 0Z" fill="#000000" p-id="36758"></path><path d="M179.2 527.36m-61.44 0a61.44 61.44 0 1 0 122.88 0 61.44 61.44 0 1 0-122.88 0Z" fill="#000000" p-id="36759"></path><path d="M424.96 829.44m-61.44 0a61.44 61.44 0 1 0 122.88 0 61.44 61.44 0 1 0-122.88 0Z" fill="#000000" p-id="36760"></path><path d="M670.72 512v30.72H177.73056v-30.72z" fill="#000000" p-id="36761"></path><path d="M348.16 299.9808V424.96c0 47.5136 38.07744 86.144 85.38624 87.02464L435.2 512h235.52v30.72H435.2c-64.38912 0-116.70528-51.67616-117.74464-115.8144L317.44 424.96V299.9808h30.72z" fill="#000000" p-id="36762"></path><path d="M512 133.12v291.84c0 47.5136 38.07744 86.144 85.38624 87.02464L599.04 512h71.68v30.72h-71.68c-64.38912 0-116.70528-51.67616-117.74464-115.8144L481.28 424.96V133.12h30.72z" fill="#000000" p-id="36763"></path><path d="M710.94272 512v30.72h-184.32c-47.5136 0-86.13888 38.07744-87.02464 85.38624l-0.01536 1.65376v189.44h-30.72v-189.44c0-64.38912 51.67616-116.70528 115.8144-117.74464l1.9456-0.01536h184.32z" fill="#000000" p-id="36764"></path></svg>