<?xml version="1.0" standalone="no"?><!DOCTYPE svg PUBLIC "-//W3C//DTD SVG 1.1//EN" "http://www.w3.org/Graphics/SVG/1.1/DTD/svg11.dtd"><svg t="1757682057208" class="icon" viewBox="0 0 1024 1024" version="1.1" xmlns="http://www.w3.org/2000/svg" p-id="42158" xmlns:xlink="http://www.w3.org/1999/xlink" width="200" height="200"><path d="M512 265.386667a132.693333 132.693333 0 1 1 132.693333-132.693334A132.693333 132.693333 0 0 1 512 265.386667z m0-189.44a56.746667 56.746667 0 1 0 56.746667 56.746666A56.32 56.32 0 0 0 512 75.946667zM512 1024a487.253333 487.253333 0 0 1-259.84-75.093333 37.973333 37.973333 0 1 1 35.413333-66.986667l5.12 2.986667a418.56 418.56 0 0 0 435.626667 0 37.973333 37.973333 0 0 1 39.68 64.853333A489.813333 489.813333 0 0 1 512 1024z m450.56-450.56a37.546667 37.546667 0 0 1-37.973333-37.546667 411.733333 411.733333 0 0 0-196.266667-351.573333 38.4 38.4 0 0 1-14.933333-51.626667 37.973333 37.973333 0 0 1 51.626666-14.506666H768a484.693333 484.693333 0 0 1 232.106667 416 37.12 37.12 0 0 1-37.546667 37.546666z m-901.12 0a37.12 37.12 0 0 1-37.546667-37.546667A486.826667 486.826667 0 0 1 244.906667 128a37.973333 37.973333 0 1 1 42.666666 63.573333 411.306667 411.306667 0 0 0-187.306666 345.173334 37.546667 37.546667 0 0 1-37.973334 37.546666z" fill="#3972F7" p-id="42159"></path><path d="M512 763.306667a203.946667 203.946667 0 1 1 203.946667-203.946667A203.946667 203.946667 0 0 1 512 763.306667z m0-331.946667a128 128 0 1 0 128 128 128 128 0 0 0-128-128zM132.693333 929.28a132.693333 132.693333 0 1 1 132.693334-132.693333 132.693333 132.693333 0 0 1-132.693334 132.693333z m0-189.866667a57.173333 57.173333 0 1 0 56.746667 57.173334 56.746667 56.746667 0 0 0-56.746667-57.173334z m758.613334 189.866667A132.693333 132.693333 0 1 1 1024 796.586667a132.693333 132.693333 0 0 1-132.693333 132.693333z m0-189.866667a57.173333 57.173333 0 1 0 56.746666 57.173334 56.746667 56.746667 0 0 0-56.746666-57.173334z" fill="#3972F7" p-id="42160"></path><path d="M474.026667 227.413333h75.946666v165.973334h-75.946666z m-292.266667 490.666667l165.973333-118.186667 42.666667 61.44-164.693333 118.613334z m450.56-56.32l42.666667-61.866667 165.973333 118.613334-42.666667 61.44z" fill="#3972F7" p-id="42161"></path></svg>